<svg width="112" height="91" viewBox="0 0 112 91" fill="none" xmlns="http://www.w3.org/2000/svg">
<path d="M0.5 90L0.5 90.5H1H48.3774H48.8774V90L48.8774 42.832V42.332H48.3774L21.9504 42.332C22.3049 38.41 22.8777 35.5768 23.8302 33.3169C24.8197 30.969 26.2309 29.2123 28.2925 27.4934L28.2925 27.4934L28.2962 27.4902C32.891 23.5825 37.4816 21.7289 46.5771 20.3288L47.3003 20.2175L46.9338 19.5842L36.614 1.74958L36.4292 1.43017L36.0695 1.51265C24.7606 4.10563 19.2726 6.71747 13.0914 12.6619C4.76483 20.0449 0.5 30.5123 0.5 42.832L0.5 90ZM63.3571 90V90.5H63.8571H111H111.5V90L111.5 42.832V42.332H111L84.8072 42.332C85.1576 38.4035 85.6764 35.5711 86.6013 33.3121C87.5603 30.9698 88.9671 29.2176 91.1393 27.5017L91.1514 27.4921L91.1629 27.4819C95.518 23.5831 100.101 21.7294 109.2 20.3288L109.923 20.2175L109.556 19.5842L99.2366 1.74958L99.0509 1.42862L98.6898 1.51317C87.6104 4.1076 82.1286 6.71992 75.7152 12.661C67.6234 20.0433 63.3571 30.5098 63.3571 42.832L63.3571 90Z" stroke="#AFCBFF"/>
</svg>
