<svg width="117" height="95" viewBox="0 0 117 95" fill="none" xmlns="http://www.w3.org/2000/svg">
<path d="M116.5 1.00001L116.5 0.500008L116 0.500008L66.4691 0.500003L65.9691 0.500003L65.9691 1L65.9691 50.312L65.9691 50.812L66.4691 50.812L94.1222 50.812C93.7517 54.9261 93.1521 57.8979 92.1531 60.2685C91.1169 62.727 89.6391 64.5664 87.4815 66.3653L87.4815 66.3653L87.4778 66.3684C82.6697 70.4575 77.8659 72.3964 68.3546 73.8605L67.6315 73.9718L67.9979 74.6051L78.7868 93.2504L78.9717 93.5698L79.3314 93.4874C91.1519 90.777 96.8852 88.0479 103.344 81.8367C112.043 74.1231 116.5 63.1864 116.5 50.312L116.5 1.00001ZM50.7857 1L50.7857 0.500002L50.2857 0.500002L1 0.499998L0.5 0.499998L0.5 0.999998L0.499996 50.312L0.499996 50.812L0.999996 50.812L28.4082 50.812C28.0418 54.9326 27.4989 57.9036 26.5288 60.2732C25.5245 62.7262 24.0511 64.5611 21.7775 66.357L21.7654 66.3665L21.7539 66.3768C17.1962 70.4569 12.4001 72.3959 2.88555 73.8605L2.1624 73.9718L2.52885 74.6051L13.3178 93.2504L13.5035 93.5714L13.8645 93.4868C25.445 90.7751 31.1721 88.0454 37.8733 81.8377C46.3275 74.1247 50.7857 63.1888 50.7857 50.312L50.7857 1Z" stroke="#AFCBFF"/>
</svg>
