<svg width="20" height="20" viewBox="0 0 20 20" fill="none" xmlns="http://www.w3.org/2000/svg">
<path d="M10.0003 1.66663C5.40866 1.66663 1.66699 5.40829 1.66699 9.99996C1.66699 14.5916 5.40866 18.3333 10.0003 18.3333C14.592 18.3333 18.3337 14.5916 18.3337 9.99996C18.3337 5.40829 14.592 1.66663 10.0003 1.66663ZM12.3253 10.4416L9.38366 13.3833C9.25866 13.5083 9.10033 13.5666 8.94199 13.5666C8.78366 13.5666 8.62533 13.5083 8.50033 13.3833C8.25866 13.1416 8.25866 12.7416 8.50033 12.5L11.0003 9.99996L8.50033 7.49996C8.25866 7.25829 8.25866 6.85829 8.50033 6.61663C8.74199 6.37496 9.14199 6.37496 9.38366 6.61663L12.3253 9.55829C12.5753 9.79996 12.5753 10.2 12.3253 10.4416Z" fill="#292D32"/>
</svg>
