<svg width="16" height="16" viewBox="0 0 16 16" fill="none" xmlns="http://www.w3.org/2000/svg">
<path d="M8.00016 1.33334C4.32683 1.33334 1.3335 4.32668 1.3335 8.00001C1.3335 11.6733 4.32683 14.6667 8.00016 14.6667C11.6735 14.6667 14.6668 11.6733 14.6668 8.00001C14.6668 4.32668 11.6735 1.33334 8.00016 1.33334ZM10.2402 9.53334C10.4335 9.72668 10.4335 10.0467 10.2402 10.24C10.1402 10.34 10.0135 10.3867 9.88683 10.3867C9.76016 10.3867 9.6335 10.34 9.5335 10.24L8.00016 8.70668L6.46683 10.24C6.36683 10.34 6.24016 10.3867 6.1135 10.3867C5.98683 10.3867 5.86016 10.34 5.76016 10.24C5.56683 10.0467 5.56683 9.72668 5.76016 9.53334L7.2935 8.00001L5.76016 6.46668C5.56683 6.27334 5.56683 5.95334 5.76016 5.76001C5.9535 5.56668 6.2735 5.56668 6.46683 5.76001L8.00016 7.29334L9.5335 5.76001C9.72683 5.56668 10.0468 5.56668 10.2402 5.76001C10.4335 5.95334 10.4335 6.27334 10.2402 6.46668L8.70683 8.00001L10.2402 9.53334Z" fill="#8F8F8F"/>
</svg>
