<svg width="30" height="30" viewBox="0 0 30 30" fill="none" xmlns="http://www.w3.org/2000/svg">
<rect width="30" height="30" rx="4" fill="white"/>
<path d="M16.2977 8.63251L17.6177 11.2725C17.7977 11.64 18.2777 11.9925 18.6827 12.06L21.0752 12.4575C22.6052 12.7125 22.9652 13.8225 21.8627 14.9175L20.0027 16.7775C19.6877 17.0925 19.5152 17.7 19.6127 18.135L20.1452 20.4375C20.5652 22.26 19.5977 22.965 17.9852 22.0125L15.7427 20.685C15.3377 20.445 14.6702 20.445 14.2577 20.685L12.0152 22.0125C10.4102 22.965 9.43518 22.2525 9.85518 20.4375L10.3877 18.135C10.4852 17.7 10.3127 17.0925 9.99768 16.7775L8.13768 14.9175C7.04268 13.8225 7.39518 12.7125 8.92518 12.4575L11.3177 12.06C11.7152 11.9925 12.1952 11.64 12.3752 11.2725L13.6952 8.63251C14.4152 7.20001 15.5852 7.20001 16.2977 8.63251Z" stroke="#292D32" stroke-width="1.5" stroke-linecap="round" stroke-linejoin="round"/>
</svg>
