<svg width="18" height="18" viewBox="0 0 18 18" fill="none" xmlns="http://www.w3.org/2000/svg">
<path d="M2.24667 6.97167H5.35617V16.9733H2.24667V6.97167ZM3.8015 2C4.79533 2 5.603 2.80767 5.603 3.80317C5.603 4.79767 4.79533 5.60533 3.8015 5.60533C2.80533 5.60533 2 4.79767 2 3.80317C2 2.80767 2.80533 2 3.8015 2Z" fill="#292D32"/>
<path d="M7.30615 6.97167H10.2878V8.33933H10.3303C10.7453 7.55267 11.7597 6.724 13.2715 6.724C16.4193 6.724 17.0003 8.79483 17.0003 11.4878V16.9733H13.8932V12.1095C13.8932 10.9493 13.873 9.4575 12.2778 9.4575C10.6602 9.4575 10.4133 10.722 10.4133 12.0262V16.9733H7.30615V6.97167Z" fill="#292D32"/>
</svg>
