<svg width="18" height="18" viewBox="0 0 18 18" fill="none" xmlns="http://www.w3.org/2000/svg">
<path d="M14.3025 10.68C14.085 10.8975 13.74 10.8975 13.53 10.68C13.3125 10.4625 13.3125 10.1175 13.53 9.90751C15.03 8.40751 15.03 5.97001 13.53 4.47751C12.03 2.98501 9.59246 2.97751 8.09996 4.47751C6.60746 5.97751 6.59996 8.41501 8.09996 9.90751C8.31746 10.125 8.31746 10.47 8.09996 10.68C7.88246 10.8975 7.53746 10.8975 7.32746 10.68C5.39996 8.75251 5.39996 5.61751 7.32746 3.69751C9.25496 1.77751 12.39 1.77001 14.31 3.69751C16.23 5.62501 16.23 8.75251 14.3025 10.68Z" fill="white"/>
<path d="M3.69754 7.31999C3.91504 7.10249 4.26004 7.10249 4.47004 7.31999C4.68754 7.53749 4.68754 7.88249 4.47004 8.09249C2.97004 9.59249 2.97004 12.03 4.47004 13.5225C5.97004 15.015 8.40754 15.0225 9.90004 13.5225C11.3925 12.0225 11.4 9.58499 9.90004 8.09249C9.68254 7.87499 9.68254 7.52999 9.90004 7.31999C10.1175 7.10249 10.4625 7.10249 10.6725 7.31999C12.6 9.24749 12.6 12.3825 10.6725 14.3025C8.74504 16.2225 5.61004 16.23 3.69004 14.3025C1.77004 12.375 1.77004 9.24749 3.69754 7.31999Z" fill="white"/>
</svg>
