<svg width="18" height="18" viewBox="0 0 18 18" fill="none" xmlns="http://www.w3.org/2000/svg">
<path d="M16 4.34167C15.475 4.575 14.95 4.75 14.3667 4.80833C14.95 4.45833 15.4167 3.875 15.65 3.23333C15.0667 3.58333 14.4833 3.81667 13.8417 3.93333C13.3167 3.35 12.5583 3 11.7417 3C10.1667 3 8.88333 4.28333 8.88333 5.85833C8.88333 6.09167 8.88333 6.325 8.94167 6.5C6.49167 6.38333 4.39167 5.21667 2.99167 3.46667C2.7 3.93333 2.58333 4.4 2.58333 4.925C2.58333 5.91667 3.10833 6.79167 3.86667 7.31667C3.4 7.31667 2.93333 7.2 2.58333 6.96667C2.58333 6.96667 2.58333 6.96667 2.58333 7.025C2.58333 8.425 3.575 9.59167 4.85833 9.825C4.625 9.88333 4.39167 9.94167 4.1 9.94167C3.925 9.94167 3.75 9.94167 3.575 9.88333C3.925 11.05 4.975 11.8667 6.25833 11.8667C5.26667 12.625 4.04167 13.0917 2.7 13.0917C2.46667 13.0917 2.23333 13.0917 2 13.0333C3.28333 13.85 4.8 14.3167 6.375 14.3167C11.6833 14.3167 14.5417 9.94167 14.5417 6.15C14.5417 6.03333 14.5417 5.91667 14.5417 5.8C15.125 5.39167 15.5917 4.86667 16 4.34167Z" fill="#292D32"/>
</svg>
