<svg width="32" height="32" viewBox="0 0 32 32" fill="none" xmlns="http://www.w3.org/2000/svg">
<path fill-rule="evenodd" clip-rule="evenodd" d="M4.58349 9.33325C4.58349 8.91904 4.91927 8.58325 5.33349 8.58325H26.6668C27.081 8.58325 27.4168 8.91904 27.4168 9.33325C27.4168 9.74747 27.081 10.0833 26.6668 10.0833H5.33349C4.91927 10.0833 4.58349 9.74747 4.58349 9.33325ZM4.58349 15.9999C4.58349 15.5857 4.91927 15.2499 5.33349 15.2499L26.6668 15.2499C27.081 15.2499 27.4168 15.5857 27.4168 15.9999C27.4168 16.4141 27.081 16.7499 26.6668 16.7499L5.33349 16.7499C4.91927 16.7499 4.58349 16.4141 4.58349 15.9999ZM5.33349 21.9166C4.91927 21.9166 4.58349 22.2524 4.58349 22.6666C4.58349 23.0808 4.91927 23.4166 5.33349 23.4166H26.6668C27.081 23.4166 27.4168 23.0808 27.4168 22.6666C27.4168 22.2524 27.081 21.9166 26.6668 21.9166H5.33349Z" fill="white"/>
</svg>
