<svg width="20" height="21" viewBox="0 0 20 21" fill="none" xmlns="http://www.w3.org/2000/svg">
<path d="M17.7499 6.81666H13.0999C12.7749 6.81666 12.5166 6.55833 12.5166 6.23333C12.5166 5.90833 12.7749 5.64999 13.0999 5.64999H17.7499C18.0749 5.64999 18.3333 5.90833 18.3333 6.23333C18.3333 6.55833 18.0749 6.81666 17.7499 6.81666Z" fill="#292D32"/>
<path d="M5.35033 6.81666H2.25033C1.92533 6.81666 1.66699 6.55833 1.66699 6.23333C1.66699 5.90833 1.92533 5.64999 2.25033 5.64999H5.35033C5.67533 5.64999 5.93366 5.90833 5.93366 6.23333C5.93366 6.55833 5.66699 6.81666 5.35033 6.81666Z" fill="#292D32"/>
<path d="M8.44987 9.525C10.2678 9.525 11.7415 8.05127 11.7415 6.23333C11.7415 4.4154 10.2678 2.94167 8.44987 2.94167C6.63193 2.94167 5.1582 4.4154 5.1582 6.23333C5.1582 8.05127 6.63193 9.525 8.44987 9.525Z" fill="#292D32"/>
<path d="M17.7497 15.3417H14.6497C14.3247 15.3417 14.0664 15.0833 14.0664 14.7583C14.0664 14.4333 14.3247 14.175 14.6497 14.175H17.7497C18.0747 14.175 18.3331 14.4333 18.3331 14.7583C18.3331 15.0833 18.0747 15.3417 17.7497 15.3417Z" fill="#292D32"/>
<path d="M6.90033 15.3417H2.25033C1.92533 15.3417 1.66699 15.0833 1.66699 14.7583C1.66699 14.4333 1.92533 14.175 2.25033 14.175H6.90033C7.22533 14.175 7.48366 14.4333 7.48366 14.7583C7.48366 15.0833 7.21699 15.3417 6.90033 15.3417Z" fill="#292D32"/>
<path d="M11.5505 18.0583C13.3684 18.0583 14.8421 16.5846 14.8421 14.7667C14.8421 12.9487 13.3684 11.475 11.5505 11.475C9.73252 11.475 8.25879 12.9487 8.25879 14.7667C8.25879 16.5846 9.73252 18.0583 11.5505 18.0583Z" fill="#292D32"/>
</svg>
