<svg width="14" height="16" viewBox="0 0 14 16" fill="none" xmlns="http://www.w3.org/2000/svg">
<path fill-rule="evenodd" clip-rule="evenodd" d="M7.00001 0.24998C7.41423 0.24998 7.75001 0.585766 7.75001 0.99998L7.75001 13.1893L12.4697 8.46965C12.7626 8.17676 13.2374 8.17676 13.5303 8.46965C13.8232 8.76254 13.8232 9.23742 13.5303 9.53031L7.53034 15.5303C7.38969 15.671 7.19892 15.75 7.00001 15.75C6.8011 15.75 6.61033 15.671 6.46968 15.5303L0.469681 9.53031C0.176788 9.23742 0.176788 8.76254 0.469681 8.46965C0.762574 8.17676 1.23745 8.17676 1.53034 8.46965L6.25001 13.1893L6.25001 0.99998C6.25001 0.585766 6.5858 0.24998 7.00001 0.24998Z" fill="#8F8F8F"/>
</svg>
