<svg width="249" height="202" viewBox="0 0 249 202" fill="none" xmlns="http://www.w3.org/2000/svg">
<path d="M-0.5 201V201.5H0H106.814H107.314V201V94.336V93.836H106.814H46.5483C47.3446 84.5847 48.654 77.9037 50.8938 72.5734C53.1708 67.1544 56.4212 63.1037 61.131 59.1649L61.1347 59.1617C71.6144 50.2223 82.0897 46.0008 102.661 42.8248L103.382 42.7134L103.017 42.0808L79.7508 1.75015L79.566 1.42984L79.2056 1.51272C53.7729 7.36178 41.5172 13.2298 27.6858 26.5744C9.06086 43.1336 -0.5 66.6248 -0.5 94.336V201ZM141.214 201V201.5H141.714H248H248.5V201V94.336V93.836H248H188.262C189.054 84.5779 190.236 77.8979 192.412 72.5686C194.621 67.1552 197.867 63.109 202.835 59.1732L202.847 59.1637L202.859 59.1534C212.804 50.2228 223.272 46.0013 243.846 42.8248L244.568 42.7134L244.203 42.0808L220.936 1.75015L220.751 1.42828L220.389 1.51325C195.48 7.36379 183.23 13.2323 168.872 26.5737C150.777 43.1321 141.214 66.6224 141.214 94.336V201Z" stroke="#5765E6"/>
</svg>
