<svg width="298" height="240" viewBox="0 0 298 240" fill="none" xmlns="http://www.w3.org/2000/svg">
<path d="M297.5 1.00003L297.5 0.500031L297 0.500031L169.512 0.500019L169.012 0.500019L169.012 1.00002L169.012 128.032L169.012 128.532L169.512 128.532L241.548 128.532C240.598 139.607 239.032 147.606 236.345 153.987C233.621 160.457 229.731 165.293 224.1 169.992L224.096 169.995C211.569 180.658 199.047 185.69 174.485 189.474L173.762 189.585L174.128 190.218L201.898 238.25L202.082 238.57L202.442 238.487C232.787 231.524 247.397 224.541 263.89 208.663C286.097 188.963 297.5 161.013 297.5 128.032L297.5 1.00003ZM128.357 1.00002L128.357 0.500016L127.857 0.500016L1.00002 0.500005L0.500021 0.500005L0.500021 1L0.50001 128.032L0.50001 128.532L1.00001 128.532L72.4049 128.532C71.4594 139.614 70.0471 147.611 67.437 153.992C64.7925 160.456 60.907 165.288 54.9671 169.984L54.955 169.993L54.9435 170.004C43.0533 180.657 30.5386 185.689 5.9729 189.474L5.25016 189.585L5.61618 190.218L33.3859 238.25L33.5716 238.571L33.9329 238.487C63.652 231.522 78.2554 224.539 95.3767 208.664C116.952 188.964 128.357 161.015 128.357 128.032L128.357 1.00002Z" stroke="#5765E6"/>
</svg>
